<svg id="Layer_1" data-name="Layer 1" xmlns="http://www.w3.org/2000/svg" viewBox="0 0 50 50"><defs><style>.cls-1{fill:#fff;}</style></defs><title>icon-zalo</title><path class="cls-1" d="M18.21,22c1.54,0,3,0,4.43,0,.81,0,1.25.35,1.32,1a1.14,1.14,0,0,1-1.25,1.35c-1.65,0-3.3,0-5,0-.48,0-1,0-1.43,0a1.5,1.5,0,0,1-1.45-.76,1.51,1.51,0,0,1,.31-1.66l4.73-6,.35-.46H16.5a3.1,3.1,0,0,1-.76-.09,1.07,1.07,0,0,1,0-2.09,2.86,2.86,0,0,1,.76-.09h5.46a2.92,2.92,0,0,1,1,.12,1.11,1.11,0,0,1,.71,1.55,6.93,6.93,0,0,1-1,1.58l-4,5.09Z"/><path class="cls-1" d="M30,16.61a1.6,1.6,0,0,1,.92-.69,1.26,1.26,0,0,1,1.57,1.17c0,2,0,4.08,0,6.12a1.2,1.2,0,0,1-.85,1.16,1.25,1.25,0,0,1-1.43-.4c-.09-.11-.17-.22-.22-.29a2.34,2.34,0,0,1-.27.23,3.12,3.12,0,0,1-3.11.52,4,4,0,0,1-2.76-3.74A4.25,4.25,0,0,1,26,16.24,3.24,3.24,0,0,1,30,16.61Zm-3.61,3.73a2.23,2.23,0,0,0,.43,1.23,1.67,1.67,0,0,0,2.68,0,2.54,2.54,0,0,0,0-2.82,1.55,1.55,0,0,0-1.21-.65C27.21,18,26.43,18.9,26.44,20.34Z"/><path class="cls-1" d="M37.12,20.4A4.34,4.34,0,1,1,45.79,20a4.26,4.26,0,0,1-3.94,4.65A4.17,4.17,0,0,1,37.12,20.4Zm2.57-.25a2.31,2.31,0,0,0,.44,1.43,1.68,1.68,0,0,0,2.65,0,2.54,2.54,0,0,0,0-2.86,1.55,1.55,0,0,0-1.21-.64A1.83,1.83,0,0,0,39.69,20.15Z"/><path class="cls-1" d="M36.23,18.37c0,1.58,0,3.16,0,4.74a1.28,1.28,0,1,1-2.56,0q0-4.06,0-8.11c0-.48,0-1,0-1.43a1.28,1.28,0,1,1,2.56,0C36.24,15.17,36.23,16.77,36.23,18.37Z"/><path class="cls-1" d="M48.91,32.33A25,25,0,0,0,14.59,2.26q-.92.42-1.8.92A25,25,0,0,0,25,50h0A25,25,0,0,0,48.91,32.33h0ZM25,2A23,23,0,0,1,47,31.75a23.35,23.35,0,0,1-1.3,3.31,22.38,22.38,0,0,1-3.78,2.13,25.42,25.42,0,0,1-19.15.73A3,3,0,0,0,21,37.85c-.86.22-1.7.47-2.55.73a15.54,15.54,0,0,1-7.65.61c-.18-.08-.32-.17-.1-.35a4.46,4.46,0,0,1,.42-.29,10.13,10.13,0,0,0,3.42-3.21,1.86,1.86,0,0,0-.28-2.71C9.43,27.78,7.3,22,8.36,15.15A19.5,19.5,0,0,1,13,5.37,22.79,22.79,0,0,1,19,2.8,23.1,23.1,0,0,1,25,2Z"/></svg>